<?xml version="1.0" standalone="no"?>
<!DOCTYPE svg PUBLIC "-//W3C//DTD SVG 20010904//EN"
 "http://www.w3.org/TR/2001/REC-SVG-20010904/DTD/svg10.dtd">
<svg version="1.0" xmlns="http://www.w3.org/2000/svg"
 width="312.000000pt" height="312.000000pt" viewBox="0 0 312.000000 312.000000"
 preserveAspectRatio="xMidYMid meet">
<metadata>
Created by potrace 1.11, written by Peter Selinger 2001-2013
</metadata>
<g transform="translate(0.000000,312.000000) scale(0.100000,-0.100000)"
fill="#000000" stroke="none">
<path d="M243 3106 c-88 -28 -176 -107 -216 -194 l-22 -47 0 -1310 0 -1310 22
-47 c29 -64 104 -142 166 -173 l51 -25 1321 0 1321 0 51 25 c60 30 136 108
163 168 19 41 20 81 20 1362 0 1518 12 1355 -109 1467 -54 51 -85 71 -124 83
-44 13 -214 15 -1326 14 -1020 0 -1284 -3 -1318 -13z m2518 -189 c67 -32 142
-109 172 -175 l22 -47 0 -1140 0 -1140 -28 -56 c-32 -67 -109 -142 -175 -172
l-47 -22 -1140 0 -1140 0 -47 22 c-66 30 -143 105 -175 172 l-28 56 0 1140 0
1140 22 47 c25 54 90 128 140 159 79 49 45 48 1243 46 l1125 -2 56 -28z"/>
<path d="M433 2916 c-88 -28 -176 -107 -216 -194 l-22 -47 0 -1120 0 -1120 28
-56 c32 -67 109 -142 175 -172 l47 -22 1120 0 1120 0 47 22 c66 30 143 105
175 172 l28 56 0 1120 0 1120 -22 47 c-30 66 -105 143 -172 175 l-56 28 -1105
2 c-889 1 -1113 -1 -1147 -11z m1274 -287 c32 -27 46 -75 52 -178 9 -154 -14
-145 374 -151 295 -5 314 -6 352 -27 56 -30 90 -68 119 -136 28 -62 74 -286
83 -404 7 -82 -3 -103 -47 -103 -51 0 -72 37 -133 227 -50 159 -61 182 -94
215 -68 67 -65 66 -580 84 -690 23 -825 23 -893 0 -63 -22 -93 -39 -133 -75
-40 -36 -60 -79 -97 -211 -51 -180 -79 -222 -146 -222 -84 0 -95 76 -38 271
55 194 106 279 198 331 58 34 120 39 233 19 66 -12 144 -3 358 37 128 25 161
54 192 171 31 121 84 179 151 169 19 -3 40 -11 49 -17z m174 -669 c258 -15
349 -42 385 -112 32 -61 19 -190 -25 -259 -39 -63 -103 -94 -263 -128 -73 -16
-140 -32 -149 -35 -19 -8 -39 -48 -39 -80 0 -50 10 -53 250 -70 124 -9 297
-18 385 -22 88 -3 184 -10 213 -15 96 -19 132 -80 63 -109 -36 -15 -36 -15
-443 -5 -318 8 -351 7 -393 -9 -54 -21 -90 -64 -104 -126 -6 -25 -11 -119 -11
-210 -1 -315 -44 -423 -183 -461 -22 -6 -99 -14 -171 -18 -127 -7 -132 -7
-178 17 -86 45 -124 137 -76 182 29 27 93 26 204 -1 108 -27 150 -18 193 42
40 55 50 110 53 290 l3 155 -27 36 c-50 65 -89 76 -298 84 -138 4 -201 11
-249 25 -83 25 -115 24 -203 -7 -148 -52 -167 -56 -250 -52 -69 3 -82 6 -99
27 -30 36 -25 84 12 115 17 14 43 29 57 33 43 11 147 9 282 -5 123 -13 152
-13 455 9 150 11 204 27 250 73 15 16 25 36 25 55 0 32 -20 51 -98 90 -26 13
-47 32 -53 49 -15 40 -3 86 27 102 48 26 102 15 219 -46 133 -69 171 -74 254
-29 62 34 127 103 136 146 12 54 -2 86 -48 108 -39 18 -66 20 -362 22 -280 2
-325 0 -359 -14 -28 -12 -68 -17 -146 -17 -105 0 -109 1 -129 26 -36 46 -23
94 30 113 18 6 87 11 154 11 86 0 133 4 156 15 42 18 280 20 550 5z"/>
</g>
</svg>
